<svg xmlns="http://www.w3.org/2000/svg" viewBox="0 0 1200 900" width="100%" height="100%">
  <defs>
    <filter id="shadow" x="-5%" y="-5%" width="110%" height="110%"><feDropShadow dx="2" dy="2" stdDeviation="3" flood-opacity="0.15"/></filter>
  </defs>
  <rect width="100%" height="100%" fill="#F8FAFC"/>
  <!-- Grid Lines -->
  <pattern id="grid" width="40" height="40" patternUnits="userSpaceOnUse">
    <path d="M 40 0 L 0 0 0 40" fill="none" stroke="#E2E8F0" stroke-width="1"/>
  </pattern>
  <rect width="1200" height="900" fill="url(#grid)"/>
  <!-- Header Block -->
  <text x="40" y="45" font-family="sans-serif" font-size="22" font-weight="bold" fill="#0F172A">AreaMap Stitched Floor Plan</text>
  <text x="40" y="70" font-family="sans-serif" font-size="14" fill="#64748B">Tier: LIDAR | Status: QA PASSED | Footprint: 107.32 m² [106.46, 108.18]</text>
  <polygon points="319.28,130.00 870.72,130.00 870.72,810.00 319.28,810.00" fill="#E0F2FE" stroke="#0F172A" stroke-width="5" stroke-linejoin="round" filter="url(#shadow)"/>
  <g transform="translate(527.00, 441.00)">
    <rect width="136.0" height="58.0" rx="8" fill="#FFFFFF" fill-opacity="0.94" stroke="#0284C7" stroke-width="1.5" filter="url(#shadow)"/>
    <text x="68.0" y="18" font-family="sans-serif" font-size="13" font-weight="bold" fill="#0F172A" text-anchor="middle">Room 00</text>
    <text x="68.0" y="34" font-family="sans-serif" font-size="11" font-weight="600" fill="#2563EB" text-anchor="middle">107.32 m² [106.46, 108.18]</text>
    <text x="68.0" y="48" font-family="sans-serif" font-size="10" fill="#64748B" text-anchor="middle">Ceiling: 2.40 m</text>
  </g>
  <line x1="319.28" y1="130.00" x2="870.72" y2="130.00" stroke="#0F172A" stroke-width="4.5" stroke-linecap="round"/>
  <text x="595.00" y="123.00" font-family="sans-serif" font-size="10" font-weight="600" fill="#1D4ED8" text-anchor="middle">9.33m [9.25, 9.40]</text>
  <line x1="870.72" y1="130.00" x2="870.72" y2="810.00" stroke="#0F172A" stroke-width="4.5" stroke-linecap="round"/>
  <text x="870.72" y="463.00" font-family="sans-serif" font-size="10" font-weight="600" fill="#1D4ED8" text-anchor="middle">11.50m [11.41, 11.60]</text>
  <line x1="870.72" y1="810.00" x2="319.28" y2="810.00" stroke="#0F172A" stroke-width="4.5" stroke-linecap="round"/>
  <text x="595.00" y="803.00" font-family="sans-serif" font-size="10" font-weight="600" fill="#1D4ED8" text-anchor="middle">9.33m [9.25, 9.40]</text>
  <line x1="319.28" y1="810.00" x2="319.28" y2="130.00" stroke="#0F172A" stroke-width="4.5" stroke-linecap="round"/>
  <text x="319.28" y="463.00" font-family="sans-serif" font-size="10" font-weight="600" fill="#1D4ED8" text-anchor="middle">11.50m [11.41, 11.60]</text>
  <!-- Window window_room_00_w2_01 -->
  <rect x="860.72" y="599.47" width="20" height="8" fill="#BAE6FD" stroke="#0284C7" stroke-width="1.5"/>
  <line x1="860.72" y1="603.47" x2="880.72" y2="603.47" stroke="#0369A1" stroke-width="1"/>
  <!-- Doorway passageway_room_00_w4_01 -->
  <circle cx="319.28" cy="593.07" r="5.5" fill="#10B981" stroke="#047857" stroke-width="1.5"/>
  <path d="M 319.28 593.07 A 16 16 0 0 1 335.28 577.07" fill="none" stroke="#059669" stroke-width="1.5" stroke-dasharray="3,2"/>
  <text x="329.28" y="607.07" font-family="sans-serif" font-size="9" font-weight="bold" fill="#047857">Door 0.66m</text>
</svg>